<svg width="16" height="16" viewBox="0 0 16 16" fill="none" xmlns="http://www.w3.org/2000/svg">
<path d="M8.74707 10.2487C8.74707 10.6629 8.41128 10.9987 7.99707 10.9987C7.58286 10.9987 7.24707 10.6629 7.24707 10.2487C7.24707 9.83452 7.58286 9.49873 7.99707 9.49873C8.41128 9.49873 8.74707 9.83452 8.74707 10.2487ZM7.49707 7.99873C7.49707 8.27488 7.72093 8.49873 7.99707 8.49873C8.27321 8.49873 8.49707 8.27488 8.49707 7.99873V5.49873C8.49707 5.22259 8.27321 4.99873 7.99707 4.99873C7.72093 4.99873 7.49707 5.22259 7.49707 5.49873V7.99873ZM6.90565 2.63614C7.38279 1.78265 8.61097 1.78277 9.08794 2.63636L13.8385 11.138C14.304 11.9713 13.7017 12.9978 12.7473 12.9978H3.244C2.28942 12.9978 1.68712 11.971 2.15292 11.1378L6.90565 2.63614ZM8.21498 3.12415C8.11958 2.95343 7.87395 2.9534 7.77852 3.1241L3.02578 11.6258C2.93262 11.7924 3.05308 11.9978 3.244 11.9978H12.7473C12.9381 11.9978 13.0586 11.7925 12.9655 11.6258L8.21498 3.12415Z" fill="currentColor"/>
</svg>
