<svg width="20" height="20" viewBox="0 0 20 20" fill="none" xmlns="http://www.w3.org/2000/svg">
<path d="M9.56463 3.26181C9.75378 2.91271 10.2548 2.91273 10.4439 3.26186L16.9444 15.2628C17.1249 15.5959 16.8837 16.0009 16.5048 16.0009H3.5021C3.1232 16.0009 2.88198 15.5959 3.06248 15.2627L9.56463 3.26181ZM11.3232 2.78557C10.7559 1.73821 9.25283 1.73813 8.68539 2.78544L2.18324 14.7864C1.64173 15.7858 2.36538 17.0009 3.5021 17.0009H16.5048C17.6414 17.0009 18.3651 15.786 17.8237 14.7865L11.3232 2.78557ZM10.5026 7.50023C10.5026 7.22409 10.2788 7.00023 10.0026 7.00023C9.7265 7.00023 9.50265 7.22409 9.50265 7.50023V11.5002C9.50265 11.7764 9.7265 12.0002 10.0026 12.0002C10.2788 12.0002 10.5026 11.7764 10.5026 11.5002V7.50023ZM10.7526 13.7502C10.7526 14.1644 10.4169 14.5002 10.0026 14.5002C9.58843 14.5002 9.25265 14.1644 9.25265 13.7502C9.25265 13.336 9.58843 13.0002 10.0026 13.0002C10.4169 13.0002 10.7526 13.336 10.7526 13.7502Z" fill="currentColor"/>
</svg>
